<svg id="Слой_1" data-name="Слой 1" xmlns="http://www.w3.org/2000/svg" viewBox="0 0 446.14 143.51"><defs><style>.cls-1{fill:#abc910;}.cls-2{fill:#9b9b9b;}.cls-3{fill:#020202;}.cls-4{fill:#126cc6;}.cls-5,.cls-7{fill:#435b9e;}.cls-5,.cls-6{stroke:#435b9e;stroke-miterlimit:10;}.cls-5{stroke-width:0.25px;}.cls-6{fill:none;stroke-width:3px;}</style></defs><title>logo</title><path class="cls-1" d="M300.53,17.42" transform="translate(-0.78 -0.43)"/><polygon class="cls-2" points="379.97 10.7 379.25 67.72 331.22 95.78 379.97 10.7"/><polygon class="cls-3" points="387.88 10.7 387.88 67.9 436.99 95.78 387.88 10.7"/><polyline class="cls-4" points="383.38 76.53 335.36 102.61 430.51 102.61"/><polygon class="cls-5" points="383.68 0.01 386.52 34.25 380.83 34.25 383.68 0.01"/><polygon class="cls-5" points="446.07 106.12 414.94 91.89 417.65 87.03 446.07 106.12"/><polygon class="cls-5" points="0.01 99.23 57.52 94.99 57.6 102.12 0.01 99.23"/><line class="cls-6" x1="383.53" y1="34.02" x2="383.53" y2="70.72"/><line class="cls-6" x1="331.22" y1="99.45" x2="383.53" y2="70.72"/><line class="cls-6" x1="57.56" y1="98.78" x2="331.22" y2="99.45"/><line class="cls-6" x1="416.35" y1="89.57" x2="383.53" y2="70.72"/><path class="cls-7" d="M74.48,72,81,64l3.85,2.09-4.9,6.12,4.9,6.12L81,80.44l-6.52-8Zm8.89,0,6.5-8,3.87,2.09-4.9,6.12,4.9,6.12-3.87,2.09-6.5-8Z" transform="translate(-0.78 -0.43)"/><path class="cls-7" d="M122.54,82.09h-6.19l-9.32-13v13h-5.45V56.39H107V68.84l9.21-12.45h5.8l-9.37,12.34Z" transform="translate(-0.78 -0.43)"/><path class="cls-7" d="M139.86,60.56a5.55,5.55,0,0,0-4.76,2.31,10.75,10.75,0,0,0-1.69,6.44q0,8.6,6.45,8.6a20.39,20.39,0,0,0,6.56-1.35v4.57a18.21,18.21,0,0,1-7.07,1.32q-5.61,0-8.58-3.4t-3-9.76a16,16,0,0,1,1.46-7,10.54,10.54,0,0,1,4.19-4.62A12.4,12.4,0,0,1,139.86,56a17.29,17.29,0,0,1,7.52,1.81l-1.76,4.43a29.1,29.1,0,0,0-2.9-1.2A8.65,8.65,0,0,0,139.86,60.56Z" transform="translate(-0.78 -0.43)"/><path class="cls-7" d="M176.11,82.09h-5.43V71H160.5V82.09h-5.45V56.39h5.45V66.46h10.18V56.39h5.43Z" transform="translate(-0.78 -0.43)"/><path class="cls-7" d="M194.35,72.48l-6.52,8L184,78.35l4.89-6.12L184,66.11,187.82,64l6.52,8Zm8.89,0-6.52,8-3.85-2.09,4.89-6.12-4.89-6.12L196.72,64l6.52,8Z" transform="translate(-0.78 -0.43)"/><path class="cls-7" d="M229.51,68.73l-8.63-12.34h5.61l8.31,12.45V56.39h5.08V68.84l8.31-12.45h5.63l-8.65,12.34,9.14,13.36h-5.84l-8.6-13v13H234.8v-13l-8.6,13h-5.84Z" transform="translate(-0.78 -0.43)"/><path class="cls-7" d="M279.63,77.56h8V56.39H293v25.7H260.72V56.39h5.45V77.56h8V56.39h5.48Z" transform="translate(-0.78 -0.43)"/><path class="cls-7" d="M313.61,60.56a5.55,5.55,0,0,0-4.76,2.31,10.75,10.75,0,0,0-1.69,6.44q0,8.6,6.45,8.6a20.39,20.39,0,0,0,6.56-1.35v4.57a18.21,18.21,0,0,1-7.07,1.32q-5.61,0-8.58-3.4t-3-9.76a16,16,0,0,1,1.46-7,10.54,10.54,0,0,1,4.19-4.62A12.4,12.4,0,0,1,313.61,56a17.29,17.29,0,0,1,7.52,1.81l-1.76,4.43a29.1,29.1,0,0,0-2.9-1.2A8.65,8.65,0,0,0,313.61,60.56Z" transform="translate(-0.78 -0.43)"/><path class="cls-7" d="M58.16,138.38H55.66v-19.2H48.88V117H64.94v2.21H58.16Z" transform="translate(-0.78 -0.43)"/><path class="cls-7" d="M89.39,127.64q0,5.14-2.6,8.09a9.14,9.14,0,0,1-7.23,2.94,9.26,9.26,0,0,1-7.3-2.89q-2.57-2.89-2.57-8.17t2.58-8.11a9.32,9.32,0,0,1,7.32-2.88,9.12,9.12,0,0,1,7.21,2.93Q89.39,122.49,89.39,127.64Zm-17.07,0q0,4.35,1.85,6.6a6.58,6.58,0,0,0,5.38,2.25,6.51,6.51,0,0,0,5.38-2.24q1.82-2.24,1.82-6.61t-1.81-6.56a6.48,6.48,0,0,0-5.35-2.23,6.61,6.61,0,0,0-5.41,2.25Q72.32,123.35,72.32,127.64Z" transform="translate(-0.78 -0.43)"/><path class="cls-7" d="M115.39,127.64q0,5.14-2.6,8.09a9.14,9.14,0,0,1-7.23,2.94,9.26,9.26,0,0,1-7.3-2.89q-2.57-2.89-2.57-8.17t2.58-8.11a9.32,9.32,0,0,1,7.32-2.88,9.12,9.12,0,0,1,7.21,2.93Q115.39,122.49,115.39,127.64Zm-17.07,0q0,4.35,1.85,6.6a7.57,7.57,0,0,0,10.76,0q1.82-2.24,1.82-6.61t-1.81-6.56a6.48,6.48,0,0,0-5.35-2.23,6.61,6.61,0,0,0-5.41,2.25Q98.33,123.35,98.33,127.64Z" transform="translate(-0.78 -0.43)"/><path class="cls-7" d="M131.5,130.31l5-6,1.74,1L134,130.49l4.23,5.14-1.74,1-5-6Zm5.79,0,5-6,1.71,1-4.2,5.13,4.2,5.14-1.71,1-5-6Z" transform="translate(-0.78 -0.43)"/><path class="cls-7" d="M166.2,138.38h-3l-9.9-10.85v10.85h-2.49V117h2.49v10.37L162.94,117h2.86l-9.48,10.4Z" transform="translate(-0.78 -0.43)"/><path class="cls-7" d="M181.29,138.38l-.48-2.29h-.12a6.75,6.75,0,0,1-2.4,2,7.3,7.3,0,0,1-3,.54,5.36,5.36,0,0,1-3.74-1.23,4.49,4.49,0,0,1-1.35-3.5q0-4.86,7.78-5.1l2.72-.09v-1a4.07,4.07,0,0,0-.81-2.79,3.34,3.34,0,0,0-2.6-.9,10.59,10.59,0,0,0-4.54,1.23l-.75-1.86a11.4,11.4,0,0,1,2.6-1,11.26,11.26,0,0,1,2.83-.37,6.11,6.11,0,0,1,4.26,1.27,5.32,5.32,0,0,1,1.38,4.09v11Zm-5.49-1.71a4.94,4.94,0,0,0,3.57-1.25,4.61,4.61,0,0,0,1.3-3.49v-1.45l-2.43.1a8.85,8.85,0,0,0-4.18.9,2.72,2.72,0,0,0-1.28,2.48,2.51,2.51,0,0,0,.8,2A3.31,3.31,0,0,0,175.8,136.67Z" transform="translate(-0.78 -0.43)"/><path class="cls-7" d="M193.81,129q4.56,0,4.56-2.52t-3.69-2.37a9.47,9.47,0,0,0-2.05.21,15.66,15.66,0,0,0-2.42.82l-.86-2a13.16,13.16,0,0,1,5.43-1.11,7.41,7.41,0,0,1,4.37,1.14,3.6,3.6,0,0,1,1.6,3.1q0,2.7-3,3.53v.12a5.45,5.45,0,0,1,2.7,1.54,3.75,3.75,0,0,1,.85,2.51,4,4,0,0,1-1.79,3.46,8.63,8.63,0,0,1-5,1.24,11.27,11.27,0,0,1-5.36-1v-2.23a12.63,12.63,0,0,0,5.42,1.26,5.72,5.72,0,0,0,3.19-.73,2.36,2.36,0,0,0,1.08-2.09q0-2.8-4.56-2.8h-2.23V129Z" transform="translate(-0.78 -0.43)"/><path class="cls-7" d="M217.41,118.88a7,7,0,0,0-5.57,2.35,9.48,9.48,0,0,0-2,6.44,9.67,9.67,0,0,0,2,6.5,7,7,0,0,0,5.62,2.29,19.18,19.18,0,0,0,5.11-.81v2.18a15.74,15.74,0,0,1-5.49.83,9.29,9.29,0,0,1-7.3-2.87q-2.57-2.87-2.57-8.16a12.88,12.88,0,0,1,1.24-5.8,8.89,8.89,0,0,1,3.57-3.84,10.82,10.82,0,0,1,5.5-1.35,13.27,13.27,0,0,1,5.89,1.23L222.27,120A11.35,11.35,0,0,0,217.41,118.88Z" transform="translate(-0.78 -0.43)"/><path class="cls-7" d="M231.87,138.38h-2.43V122.33h13.48v16.06h-2.46V124.44h-8.58Z" transform="translate(-0.78 -0.43)"/><path class="cls-7" d="M257.5,138.67a7.38,7.38,0,0,1-5.62-2.17,8.39,8.39,0,0,1-2.06-6,9.31,9.31,0,0,1,1.91-6.17,6.35,6.35,0,0,1,5.13-2.29,6.05,6.05,0,0,1,4.78,2,7.61,7.61,0,0,1,1.76,5.24v1.54H252.34a6.36,6.36,0,0,0,1.43,4.29,4.94,4.94,0,0,0,3.82,1.46,12.93,12.93,0,0,0,5.13-1.08v2.17a12.88,12.88,0,0,1-2.44.8A13.71,13.71,0,0,1,257.5,138.67Zm-.66-14.6a4,4,0,0,0-3.08,1.26,5.81,5.81,0,0,0-1.35,3.49h8.39a5.35,5.35,0,0,0-1-3.52A3.61,3.61,0,0,0,256.84,124.07Z" transform="translate(-0.78 -0.43)"/><path class="cls-7" d="M285.84,143.93h-2.43v-5.55H270.18V122.33h2.43v14h8.53v-14h2.43v14h2.27Z" transform="translate(-0.78 -0.43)"/><path class="cls-7" d="M308.23,138.38h-2.49V128.3H294.46v10.08H292V117h2.49v9.11h11.28V117h2.49Z" transform="translate(-0.78 -0.43)"/><path class="cls-7" d="M326.25,138.38l-.48-2.29h-.12a6.75,6.75,0,0,1-2.4,2,7.3,7.3,0,0,1-3,.54,5.36,5.36,0,0,1-3.74-1.23,4.48,4.48,0,0,1-1.36-3.5q0-4.86,7.78-5.1l2.72-.09v-1a4.07,4.07,0,0,0-.81-2.79,3.34,3.34,0,0,0-2.6-.9,10.59,10.59,0,0,0-4.54,1.23l-.75-1.86a11.39,11.39,0,0,1,2.6-1,11.25,11.25,0,0,1,2.83-.37,6.12,6.12,0,0,1,4.26,1.27,5.32,5.32,0,0,1,1.38,4.09v11Zm-5.49-1.71a4.94,4.94,0,0,0,3.57-1.25,4.61,4.61,0,0,0,1.3-3.49v-1.45l-2.43.1a8.85,8.85,0,0,0-4.18.9,2.72,2.72,0,0,0-1.28,2.48,2.5,2.5,0,0,0,.8,2A3.31,3.31,0,0,0,320.76,136.67Z" transform="translate(-0.78 -0.43)"/><path class="cls-7" d="M347.67,138.38h-2.46v-14h-4.82a58.39,58.39,0,0,1-1.1,8.28,11.57,11.57,0,0,1-1.82,4.48,3.48,3.48,0,0,1-2.85,1.42,3.68,3.68,0,0,1-1.26-.18v-1.8a2.79,2.79,0,0,0,.73.09q1.68,0,2.68-3.56a58.74,58.74,0,0,0,1.51-10.81h9.39Z" transform="translate(-0.78 -0.43)"/><path class="cls-7" d="M365.34,138.38l-.48-2.29h-.12a6.75,6.75,0,0,1-2.4,2,7.3,7.3,0,0,1-3,.54,5.36,5.36,0,0,1-3.74-1.23,4.48,4.48,0,0,1-1.36-3.5q0-4.86,7.78-5.1l2.72-.09v-1A4.07,4.07,0,0,0,364,125a3.34,3.34,0,0,0-2.6-.9,10.59,10.59,0,0,0-4.54,1.23l-.75-1.86a11.39,11.39,0,0,1,2.6-1,11.25,11.25,0,0,1,2.83-.37,6.12,6.12,0,0,1,4.26,1.27,5.32,5.32,0,0,1,1.38,4.09v11Zm-5.49-1.71a4.94,4.94,0,0,0,3.57-1.25,4.61,4.61,0,0,0,1.3-3.49v-1.45l-2.43.1a8.85,8.85,0,0,0-4.18.9,2.72,2.72,0,0,0-1.28,2.48,2.5,2.5,0,0,0,.8,2A3.31,3.31,0,0,0,359.85,136.67Z" transform="translate(-0.78 -0.43)"/><path class="cls-7" d="M388.74,143.93h-2.36v-5.55H375.16v5.55h-2.34v-7.65h1.26a20.89,20.89,0,0,0,3.08-6.25,26.85,26.85,0,0,0,1.16-7.71h8.13v14h2.3Zm-4.64-7.65v-12h-3.6a26.8,26.8,0,0,1-1.25,6.58,18.51,18.51,0,0,1-2.64,5.46Z" transform="translate(-0.78 -0.43)"/><path class="cls-7" d="M403.94,122.33h2.67l-6.93,7.75,7.5,8.31h-2.84L397,130.25v8.13h-2.43V122.33H397v7.81Z" transform="translate(-0.78 -0.43)"/><path class="cls-7" d="M422.67,138.38l-.48-2.29h-.12a6.75,6.75,0,0,1-2.4,2,7.3,7.3,0,0,1-3,.54,5.36,5.36,0,0,1-3.74-1.23,4.48,4.48,0,0,1-1.36-3.5q0-4.86,7.78-5.1l2.72-.09v-1a4.07,4.07,0,0,0-.81-2.79,3.34,3.34,0,0,0-2.6-.9,10.59,10.59,0,0,0-4.54,1.23l-.75-1.86a11.39,11.39,0,0,1,2.6-1,11.25,11.25,0,0,1,2.83-.37,6.12,6.12,0,0,1,4.26,1.27,5.32,5.32,0,0,1,1.38,4.09v11Zm-5.49-1.71a4.94,4.94,0,0,0,3.57-1.25,4.61,4.61,0,0,0,1.3-3.49v-1.45l-2.43.1a8.85,8.85,0,0,0-4.18.9,2.72,2.72,0,0,0-1.28,2.48,2.5,2.5,0,0,0,.8,2A3.31,3.31,0,0,0,417.17,136.67Z" transform="translate(-0.78 -0.43)"/><path class="cls-7" d="M437.47,130.71l-5,6-1.71-1,4.2-5.14-4.2-5.13,1.71-1,5,6Zm5.79,0-5,6-1.71-1,4.2-5.14-4.2-5.13,1.71-1,5,6Z" transform="translate(-0.78 -0.43)"/></svg>